<svg xmlns="http://www.w3.org/2000/svg" version="1.1" xmlns:xlink="http://www.w3.org/1999/xlink" width="245" height="245"><svg version="1.1" id="SvgjsSvg1001" xmlns="http://www.w3.org/2000/svg" xmlns:xlink="http://www.w3.org/1999/xlink" viewBox="175 75 245 245" style="enable-background:new 0 0 612 400;" xml:space="preserve">
	<g>
		<g>
			<path class="st1" d="M413.99,183.3c-0.8-31.7-24.46-59.92-55.51-66.26c-24.41-46.75-96.92-47.14-121.91-0.74
			c-52.52,9.6-74.71,76.7-38.38,115.76c-7.33,52.56,50.18,94.94,98.2,72.27c48.09,23.1,105.48-18.07,99.07-71.07
			C407.86,219.85,414.65,201.59,413.99,183.3z"></path>
		</g>
		<g>
			<g>
				<path class="st1" d="M399.78,167.53c-7.25-22.32-25.89-37.78-47.39-42.07c-10.62-19.49-31.28-32.73-55.02-32.73
				c-23.47,0-43.93,12.94-54.66,32.07c-21.82,4.08-40.8,19.63-48.13,42.21c-7.25,22.32-1.27,45.78,13.61,61.89
				c-2.87,22.01,6.07,44.87,25.27,58.82c18.99,13.8,43.15,15.35,63.07,6.18c20.05,9.53,44.55,8.1,63.75-5.86
				c18.99-13.8,27.93-36.3,25.37-58.07C400.9,213.85,407.11,190.1,399.78,167.53z M345.47,267.66c-13.4,9.74-31.11,9.27-43.87,0.09
				l-4.6-4.5c-12.77,13.06-33.53,15.14-48.74,4.09c-13.4-9.74-18.43-26.72-13.64-41.69l2.86-5.76
				c-16.37-8.11-24.76-27.21-18.95-45.09c5.12-15.76,19.72-25.78,35.44-25.85l6.36,0.94c2.65-18.07,18.23-31.96,37.03-31.96
				c16.57,0,30.62,10.79,35.54,25.71l1.08,6.34c18.01-3.06,36.03,7.46,41.83,25.34c5.12,15.76-0.8,32.45-13.47,41.74l-5.7,2.98
				C365.12,236.22,360.68,256.61,345.47,267.66z"></path>
				<path class="st1" d="M339.86,181.53c-7-6.04-17.84-5.47-24.49,0.96c-3.5,3.4-6.8,7.01-10.42,10.28
				c-0.97,0.88-3.39,1.63-4.06,1.09c-1.7-1.36-0.59-3.05,0.74-4.38c3.24-3.23,6.46-6.48,9.67-9.74c5.94-6.03,7.71-14.53,3.4-21.8
				c-2.68-4.53-6.89-8.16-10.51-12.11c-2.03-2.21-4.25-4.25-6.35-6.34c-5.05,5.09-9.97,9.67-14.45,14.65
				c-6.53,7.26-6.15,18.16,0.61,25.19c3.24,3.37,6.62,6.6,9.91,9.93c0.64,0.64,1.39,1.33,1.65,2.13c0.17,0.52,0.19,1.27,0.04,1.84
				c-0.4,0.26-0.75,0.6-1.04,0.99c-0.56,0.16-1.24,0.18-1.72,0.02c-0.9-0.3-1.68-1.1-2.4-1.8c-3.35-3.26-6.58-6.66-10-9.84
				c-6.35-5.9-16.28-7.14-23.04-1.81c-5.91,4.67-10.81,9.68-16.32,15.24c4.48,5.67,9.92,11.12,14.61,15.15
				c7,6.04,17.84,5.47,24.49-0.96c3.5-3.4,6.8-7.01,10.42-10.28c0.86-0.78,2.83-1.45,3.75-1.22c0.28,0.47,0.65,0.87,1.09,1.19
				c0.36,1.12-0.52,2.33-1.52,3.33c-3.24,3.23-6.46,6.48-9.67,9.74c-5.94,6.03-7.71,14.53-3.4,21.8c2.68,4.52,6.89,8.16,10.51,12.11
				c2.03,2.21,4.25,4.25,6.35,6.34c5.05-5.09,9.97-9.67,14.45-14.65c6.53-7.26,6.15-18.16-0.61-25.19c-3.24-3.37-6.62-6.6-9.91-9.93
				c-0.64-0.64-1.39-1.33-1.65-2.13c-0.11-0.34-0.15-0.78-0.13-1.21c0.69-0.4,1.25-1,1.61-1.72c0.44-0.05,0.9-0.03,1.24,0.09
				c0.9,0.3,1.68,1.1,2.4,1.8c3.35,3.26,6.58,6.66,10,9.84c6.35,5.9,16.28,7.14,23.04,1.81c5.91-4.67,11.92-11.83,15.1-16.09
				C348.81,191.52,344.55,185.57,339.86,181.53z"></path>
			</g>
			<g>
				<path class="st2" d="M359.33,146.15L359.33,146.15c-4.42-30.24-30.5-53.49-61.96-53.49c-31.46,0-57.54,23.25-61.96,53.49l0,0
				l24.94,3.67c2.65-18.07,18.23-31.96,37.03-31.96c18.8,0,34.37,13.89,37.03,31.96L359.33,146.15"></path>
			</g>
			<g class="st3">
				<path class="st4" d="M264.59,124.54L264.59,124.54c-30.13-5.14-60.29,12.48-70.02,42.4c-9.72,29.92,4.33,61.91,31.72,75.46l0,0
				l11.19-22.58c-16.37-8.11-24.76-27.21-18.95-45.09c5.81-17.88,23.83-28.4,41.83-25.34L264.59,124.54"></path>
			</g>
			<g class="st3">
				<path class="st5" d="M214.77,207.97L214.77,207.97c-14.2,27.06-6.76,61.2,18.69,79.69c25.45,18.49,60.22,15.02,81.57-6.85l0,0
				l-18.02-17.62c-12.77,13.06-33.53,15.14-48.74,4.09c-15.21-11.05-19.65-31.44-11.17-47.62L214.77,207.97"></path>
			</g>
			<g class="st6">
				<path class="st7" d="M278.71,281.13L278.71,281.13c21.35,21.87,56.11,25.34,81.57,6.85c25.45-18.49,32.89-52.63,18.69-79.69l0,0
				l-22.33,11.69c8.48,16.18,4.04,36.57-11.17,47.62c-15.21,11.05-35.97,8.97-48.74-4.09L278.71,281.13"></path>
			</g>
			<g class="st8">
				<path class="st9" d="M368.06,242.93L368.06,242.93c27.39-13.55,41.44-45.54,31.72-75.46c-9.72-29.92-39.89-47.54-70.02-42.4l0,0
				l4.22,24.85c18.01-3.06,36.03,7.46,41.83,25.34c5.81,17.88-2.58,36.98-18.95,45.09L368.06,242.93"></path>
			</g>
			<path class="st11" d="M241.1,195.97c5.52-5.56,10.41-10.57,16.32-15.24c6.75-5.33,16.69-4.09,23.04,1.81
			c3.42,3.18,6.65,6.57,10,9.84c0.72,0.7,1.5,1.49,2.4,1.8c0.73,0.25,1.98,0.11,2.45-0.39c0.47-0.48,0.51-1.71,0.26-2.46
			c-0.26-0.81-1.02-1.49-1.65-2.13c-3.29-3.32-6.67-6.56-9.91-9.93c-6.76-7.03-7.14-17.93-0.61-25.19
			c4.48-4.98,9.4-9.56,14.45-14.65c2.11,2.09,4.32,4.13,6.35,6.34c3.62,3.95,7.82,7.59,10.51,12.11c4.31,7.27,2.54,15.77-3.4,21.8
			c-3.21,3.26-6.44,6.5-9.67,9.74c-1.33,1.33-2.45,3.02-0.74,4.38c0.68,0.54,3.09-0.21,4.06-1.09c3.62-3.27,6.91-6.88,10.42-10.28
			c6.64-6.44,17.48-7,24.49-0.96c4.69,4.04,8.95,9.98,13.39,14.31c-3.18,4.26-9.19,11.42-15.1,16.09
			c-6.75,5.33-16.69,4.09-23.04-1.81c-3.42-3.18-6.65-6.57-10-9.84c-0.72-0.7-1.5-1.49-2.4-1.8c-0.73-0.25-1.98-0.11-2.45,0.39
			c-0.47,0.48-0.51,1.71-0.26,2.46c0.26,0.81,1.02,1.49,1.65,2.13c3.29,3.32,6.67,6.56,9.91,9.93c6.76,7.03,7.14,17.93,0.61,25.19
			c-4.48,4.98-9.4,9.56-14.45,14.65c-2.11-2.09-4.32-4.13-6.35-6.34c-3.62-3.95-7.82-7.59-10.51-12.11
			c-4.31-7.27-2.54-15.77,3.4-21.8c3.21-3.26,6.44-6.5,9.67-9.74c1.33-1.33,2.45-3.02,0.74-4.38c-0.68-0.54-3.09,0.21-4.06,1.09
			c-3.62,3.27-6.91,6.88-10.42,10.28c-6.64,6.44-17.48,7-24.49,0.96C251.02,207.09,245.58,201.64,241.1,195.97z"></path>
			<g>
				<path class="st1" d="M297.93,193.48c4.1-11.48,7.56-27.93-0.02-27.93c-7.33,0-4.13,16.6-0.02,27.93H297.93z"></path>
				<path class="st1" d="M299.99,195.73c11.48,4.1,25.65,7.38,25.65-0.02c0-7.34-14.32-4.13-25.65-0.02V195.73z"></path>
				<path class="st1" d="M295.6,195.77c-11.48-4.1-25.65-6.91-25.65,0.02c0,7.98,14.32,4.13,25.65,0.02V195.77z"></path>
				<path class="st1" d="M297.87,197.34c-4.1,11.48-8.99,42.24,0.02,42.24c8.95,0,4.13-30.91,0.02-42.24H297.87z"></path>
				<circle class="st1" cx="297.83" cy="196.57" r="4.06"></circle>
			</g>
		</g>
	</g>
</svg><style type="text/css">
	.st1 {
		fill: #ffffff;
	}
	.st2 {
		fill: #984590;
	}
	.st3 {
		opacity: 0.75;
	}
	.st4 {
		opacity: 0.94;
		fill: #d61f26;
	}
	.st5 {
		opacity: 0.8;
		fill: #010101;
	}
	.st6 {
		opacity: 0.8;
	}
	.st7 {
		fill: #2b763a;
	}
	.st8 {
		opacity: 0.9;
	}
	.st9 {
		fill: #b8842c;
	}

	.st11 {
		fill: #be8a58;
		stroke: #be8a58;
		stroke-width: 1.6612;
		stroke-miterlimit: 10;
	}
</style><style>@media (prefers-color-scheme: light) { :root { filter: none; } }
@media (prefers-color-scheme: dark) { :root { filter: none; } }
</style></svg>